<?xml version="1.0" ?><svg data-name="Layer 1" id="Layer_1" viewBox="0 0 24 24" xmlns="http://www.w3.org/2000/svg"><defs><style>.cls-1{fill:none;stroke:#000;stroke-linecap:round;stroke-linejoin:round;}</style></defs><title/><path class="cls-1" d="M8.79,11.93l3.82-6.48a.76.76,0,0,1,1.44,0l9,15.21"/><path class="cls-1" d="M11.05,16l1.42-1.43a1.21,1.21,0,0,1,1.71,0l1.92,1.92a1.21,1.21,0,0,0,1.71,0L19.37,15"/><path class="cls-1" d="M1,20.66l4.85-8.24c.21-.37.56-.37.78,0l4.85,8.24"/><path class="cls-1" d="M3,17.57l.85.85a.65.65,0,0,0,.93,0l1-1a.66.66,0,0,1,.92,0l1,1a.65.65,0,0,0,.93,0l.84-.85"/><path class="cls-1" d="M8.45,6.34a1.22,1.22,0,0,0-1,1.38"/><path class="cls-1" d="M7.42,7.72A1.21,1.21,0,0,0,6,6.7"/><path class="cls-1" d="M5.45,3.34a1.22,1.22,0,0,0-1,1.38"/><path class="cls-1" d="M4.42,4.72A1.21,1.21,0,0,0,3,3.7"/></svg>