<?xml version="1.0" ?><svg data-name="Layer 1" id="Layer_1" viewBox="0 0 24 24" xmlns="http://www.w3.org/2000/svg"><defs><style>.cls-1,.cls-2,.cls-3{fill:none;stroke:#000;stroke-linecap:round;}.cls-1,.cls-2{stroke-linejoin:round;}.cls-3{stroke-miterlimit:10;stroke-width:0.94px;}</style></defs><title/><path class="cls-1" d="M15,5.5a2,2,0,0,0-2-2,2,2,0,0,0-4,0,2,2,0,0,0-2,2v1h8Z"/><path class="cls-1" d="M18.5,20.5a1,1,0,0,1-1,1H4.5a1,1,0,0,1-1-1V5.5a1,1,0,0,1,1-1h1"/><path class="cls-1" d="M16.5,4.5h1a1,1,0,0,1,1,1v3"/><polyline class="cls-2" points="16.57 14.29 17.97 16 20.43 13"/><circle class="cls-3" cx="18.5" cy="14.5" r="4.5"/><line class="cls-2" x1="6.5" x2="13" y1="10.5" y2="10.5"/><line class="cls-2" x1="6.5" x2="11.5" y1="13.5" y2="13.5"/><line class="cls-2" x1="6.5" x2="12" y1="16.5" y2="16.5"/></svg>